<svg width="24" height="24" viewBox="0 0 24 24" fill="none" xmlns="http://www.w3.org/2000/svg"><path d="M20 2H4C2.9 2 2.01 2.9 2.01 4L2 22L6 18H20C21.1 18 22 17.1 22 16V4C22 2.9 21.1 2 20 2ZM6 10C6 9.44772 6.44772 9 7 9H17C17.5523 9 18 9.44772 18 10V10C18 10.5523 17.5523 11 17 11H7C6.44772 11 6 10.5523 6 10V10ZM14 13C14 13.5523 13.5523 14 13 14H7C6.44772 14 6 13.5523 6 13V13C6 12.4477 6.44772 12 7 12H13C13.5523 12 14 12.4477 14 13V13ZM18 7C18 7.55228 17.5523 8 17 8H7C6.44772 8 6 7.55228 6 7V7C6 6.44772 6.44772 6 7 6H17C17.5523 6 18 6.44772 18 7V7Z" fill="white"/></svg>