<svg width="24" height="24" viewBox="0 0 24 24" fill="none" xmlns="http://www.w3.org/2000/svg"><path d="M4 22C3.45 22 2.97917 21.8042 2.5875 21.4125C2.19583 21.0208 2 20.55 2 20V8C2 7.45 2.19583 6.97917 2.5875 6.5875C2.97917 6.19583 3.45 6 4 6H8L11.3 2.7C11.5 2.5 11.7333 2.4 12 2.4C12.2667 2.4 12.5 2.5 12.7 2.7L16 6H20C20.55 6 21.0208 6.19583 21.4125 6.5875C21.8042 6.97917 22 7.45 22 8V20C22 20.55 21.8042 21.0208 21.4125 21.4125C21.0208 21.8042 20.55 22 20 22H4ZM11.25 17L9.4 14.525C9.3 14.3917 9.16667 14.325 9 14.325C8.83333 14.325 8.7 14.3917 8.6 14.525L6.6 17.2C6.46667 17.3667 6.45 17.5417 6.55 17.725C6.65 17.9083 6.8 18 7 18H17C17.2 18 17.35 17.9083 17.45 17.725C17.55 17.5417 17.5333 17.3667 17.4 17.2L14.65 13.525C14.55 13.3917 14.4167 13.325 14.25 13.325C14.0833 13.325 13.95 13.3917 13.85 13.525L11.25 17ZM17.5 13C17.9167 13 18.2708 12.8542 18.5625 12.5625C18.8542 12.2708 19 11.9167 19 11.5C19 11.0833 18.8542 10.7292 18.5625 10.4375C18.2708 10.1458 17.9167 10 17.5 10C17.0833 10 16.7292 10.1458 16.4375 10.4375C16.1458 10.7292 16 11.0833 16 11.5C16 11.9167 16.1458 12.2708 16.4375 12.5625C16.7292 12.8542 17.0833 13 17.5 13ZM10.1 6H13.9L12 4.1L10.1 6Z" fill="white"/></svg>