<svg width="24" height="24" viewBox="0 0 24 24" width="24"fill="none" xmlns="http://www.w3.org/2000/svg"><path d="M16.8846 17.2946C17.2742 17.6842 17.9058 17.6842 18.2954 17.2946V17.2946C18.6847 16.9053 18.685 16.2743 18.2961 15.8846L15.1248 12.7063C14.7353 12.316 14.7353 11.684 15.1248 11.2937L18.2961 8.11538C18.685 7.72569 18.6847 7.09466 18.2954 6.70538V6.70538C17.9058 6.31581 17.2742 6.31581 16.8846 6.70538L12.2971 11.2929C11.9066 11.6834 11.9066 12.3166 12.2971 12.7071L16.8846 17.2946Z" fill="white"/><path d="M10.2946 17.2946C10.6842 17.6842 11.3158 17.6842 11.7054 17.2946V17.2946C12.0947 16.9053 12.095 16.2743 11.7062 15.8846L8.5348 12.7063C8.1453 12.316 8.1453 11.684 8.5348 11.2937L11.7062 8.11538C12.095 7.72569 12.0947 7.09466 11.7054 6.70538V6.70538C11.3158 6.31581 10.6842 6.31581 10.2946 6.70538L5.70711 11.2929C5.31658 11.6834 5.31658 12.3166 5.70711 12.7071L10.2946 17.2946Z" fill="white"/></svg>